<svg width="186" height="51" viewBox="0 0 186 51" fill="none" xmlns="http://www.w3.org/2000/svg">
<g clip-path="url(#clip0_34717_5606)">
<path d="M19.8077 7.59784C23.8439 7.59784 26.9687 8.71756 29.1821 10.957C31.3955 13.1704 32.5022 16.3473 32.5022 20.4876C32.5022 24.602 31.3955 27.7788 29.1821 30.0183C26.9687 32.2577 23.8439 33.3774 19.8077 33.3774H9.84744V7.59784H19.8077ZM19.5343 29.0808C21.9821 29.0808 23.8179 28.3517 25.0418 26.8935C26.2917 25.4092 26.9167 23.2739 26.9167 20.4876C26.9167 17.7014 26.2917 15.5791 25.0418 14.1209C23.8179 12.6366 21.9821 11.8944 19.5343 11.8944H15.2377V29.0808H19.5343ZM39.9557 11.0351C38.836 11.0351 38.0027 10.8008 37.4558 10.332C36.909 9.83728 36.6356 9.12118 36.6356 8.18374C36.6356 7.22026 36.909 6.50416 37.4558 6.03544C38.0027 5.54068 38.836 5.2933 39.9557 5.2933C41.0754 5.2933 41.9087 5.54068 42.4555 6.03544C43.0024 6.50416 43.2758 7.22026 43.2758 8.18374C43.2758 9.12118 43.0024 9.83728 42.4555 10.332C41.9087 10.8008 41.0754 11.0351 39.9557 11.0351ZM42.6118 13.8474V33.3774H37.2605V13.8474H42.6118ZM66.291 9.1993L66.9159 13.0272C66.8118 13.0272 66.6946 13.0272 66.5644 13.0272C66.4602 13.0011 66.3431 12.9881 66.2129 12.9881C65.0411 12.9881 64.1427 13.2615 63.5177 13.8084C62.9188 14.3292 62.6193 15.0583 62.6193 15.9957L60.432 15.0974C60.432 14.0558 60.6403 13.0923 61.0569 12.2069C61.4736 11.2955 62.0855 10.5664 62.8928 10.0196C63.726 9.47272 64.7156 9.1993 65.8613 9.1993C65.9134 9.1993 65.9785 9.1993 66.0566 9.1993C66.1347 9.1993 66.2129 9.1993 66.291 9.1993ZM59.8851 29.7058C61.9944 29.7058 63.6219 30.1615 64.7676 31.0729C65.9134 31.9843 66.4863 33.2603 66.4863 34.9008C66.4863 36.3851 66.0566 37.635 65.1973 38.6505C64.338 39.6921 63.1271 40.4733 61.5647 40.9941C60.0284 41.5149 58.2446 41.7753 56.2135 41.7753C52.8543 41.7753 50.3936 41.3066 48.8312 40.3692C47.2948 39.4317 46.5266 38.2079 46.5266 36.6975C46.5266 35.6299 46.9302 34.7315 47.7375 34.0024C48.5708 33.2733 49.9379 32.8697 51.8388 32.7915L51.6435 33.4165C50.2894 33.1821 49.2478 32.7395 48.5187 32.0885C47.8156 31.4114 47.4641 30.487 47.4641 29.3152C47.4641 28.1174 47.9198 27.1409 48.8312 26.3857C49.7686 25.6045 51.0315 25.1488 52.62 25.0186L54.9636 26.1123H54.4167C53.297 26.1904 52.5028 26.4248 52.0341 26.8154C51.5914 27.1799 51.3701 27.5966 51.3701 28.0653C51.3701 28.6121 51.5784 29.0288 51.995 29.3152C52.4377 29.5756 53.0627 29.7058 53.8699 29.7058H59.8851ZM56.2526 38.1037C57.6066 38.1037 58.7133 37.9865 59.5727 37.7522C60.458 37.5178 61.109 37.2183 61.5257 36.8538C61.9683 36.4892 62.1897 36.0856 62.1897 35.6429C62.1897 35.1482 61.9944 34.7445 61.6038 34.4321C61.2132 34.1456 60.5101 34.0024 59.4945 34.0024H52.8934C52.2684 34.0024 51.7476 34.1586 51.331 34.4711C50.9404 34.7836 50.7451 35.2133 50.7451 35.7601C50.7451 36.4892 51.2268 37.0621 52.1903 37.4787C53.1798 37.8954 54.5339 38.1037 56.2526 38.1037ZM56.2916 13.4568C58.1144 13.4568 59.6898 13.7303 61.0179 14.2771C62.372 14.7979 63.4005 15.5531 64.1036 16.5426C64.8327 17.5321 65.1973 18.7169 65.1973 20.097C65.1973 21.4511 64.8327 22.6229 64.1036 23.6124C63.4005 24.602 62.372 25.3701 61.0179 25.917C59.6898 26.4378 58.1144 26.6982 56.2916 26.6982C53.4012 26.6982 51.1878 26.1123 49.6514 24.9405C48.1151 23.7426 47.3469 22.1282 47.3469 20.097C47.3469 18.7169 47.7114 17.5321 48.4406 16.5426C49.1697 15.5531 50.1983 14.7979 51.5263 14.2771C52.8543 13.7303 54.4428 13.4568 56.2916 13.4568ZM56.2916 16.816C55.25 16.816 54.3907 17.1024 53.7137 17.6753C53.0366 18.2482 52.6981 19.0424 52.6981 20.058C52.6981 21.0735 53.0366 21.8808 53.7137 22.4797C54.3907 23.0526 55.25 23.339 56.2916 23.339C57.3332 23.339 58.1795 23.0526 58.8305 22.4797C59.5076 21.8808 59.8461 21.0735 59.8461 20.058C59.8461 19.0424 59.5076 18.2482 58.8305 17.6753C58.1795 17.1024 57.3332 16.816 56.2916 16.816ZM72.4167 11.0351C71.297 11.0351 70.4637 10.8008 69.9168 10.332C69.37 9.83728 69.0966 9.12118 69.0966 8.18374C69.0966 7.22026 69.37 6.50416 69.9168 6.03544C70.4637 5.54068 71.297 5.2933 72.4167 5.2933C73.5364 5.2933 74.3697 5.54068 74.9165 6.03544C75.4634 6.50416 75.7368 7.22026 75.7368 8.18374C75.7368 9.12118 75.4634 9.83728 74.9165 10.332C74.3697 10.8008 73.5364 11.0351 72.4167 11.0351ZM75.0728 13.8474V33.3774H69.7215V13.8474H75.0728Z" fill="#FF5300"/>
<path d="M89.8072 33.768C87.7501 33.768 85.9533 33.3644 84.417 32.5572C82.9066 31.7499 81.7348 30.5912 80.9016 29.0808C80.0683 27.5705 79.6516 25.7477 79.6516 23.6124C79.6516 21.4772 80.0683 19.6544 80.9016 18.144C81.7348 16.6337 82.8936 15.4749 84.3779 14.6677C85.8882 13.8605 87.6069 13.4568 89.5338 13.4568C91.5129 13.4568 93.1924 13.8605 94.5726 14.6677C95.9527 15.4489 97.0073 16.5296 97.7364 17.9097C98.4655 19.2638 98.8301 20.8131 98.8301 22.5578C98.8301 23.0786 98.8171 23.5734 98.791 24.0421C98.765 24.5108 98.7259 24.9275 98.6739 25.292H83.0889V21.5813H96.3303L93.7523 22.5188C93.7523 20.8782 93.3747 19.6153 92.6196 18.7299C91.8904 17.8446 90.8488 17.4019 89.4948 17.4019C88.5052 17.4019 87.6459 17.6363 86.9168 18.105C86.2137 18.5737 85.6799 19.2768 85.3153 20.2142C84.9508 21.1256 84.7685 22.2844 84.7685 23.6906C84.7685 25.0707 84.9638 26.2164 85.3544 27.1278C85.771 28.0132 86.3439 28.6772 87.073 29.1199C87.8282 29.5626 88.7266 29.7839 89.7682 29.7839C90.9139 29.7839 91.8384 29.5626 92.5414 29.1199C93.2445 28.6772 93.7914 28.0653 94.182 27.2841L98.4395 28.9246C98.0229 29.9402 97.3849 30.8125 96.5256 31.5416C95.6923 32.2707 94.6897 32.8306 93.5179 33.2212C92.3722 33.5858 91.1353 33.768 89.8072 33.768ZM103.365 33.3774V13.8474H108.169L108.482 19.7064L107.818 19.0815C108.13 17.8055 108.625 16.7639 109.302 15.9567C109.979 15.1234 110.799 14.4984 111.763 14.0818C112.752 13.6652 113.833 13.4568 115.005 13.4568C116.359 13.4568 117.557 13.7172 118.598 14.238C119.666 14.7588 120.499 15.5531 121.098 16.6207C121.723 17.6623 122.036 18.9773 122.036 20.5658V33.3774H116.684V22.0891C116.684 20.4225 116.359 19.2768 115.708 18.6518C115.057 18.0008 114.211 17.6753 113.169 17.6753C112.44 17.6753 111.724 17.8576 111.021 18.2222C110.344 18.5607 109.784 19.1205 109.341 19.9017C108.925 20.6829 108.716 21.7245 108.716 23.0265V33.3774H103.365ZM136.415 13.4568C138.16 13.4568 139.631 13.7172 140.829 14.238C142.053 14.7328 143.029 15.4229 143.759 16.3082C144.514 17.1675 145.048 18.131 145.36 19.1987L140.36 20.9954C140.1 19.8236 139.657 18.9383 139.032 18.3393C138.407 17.7404 137.561 17.441 136.493 17.441C135.504 17.441 134.658 17.6753 133.954 18.144C133.251 18.5867 132.718 19.2768 132.353 20.2142C131.988 21.1256 131.806 22.2714 131.806 23.6515C131.806 25.0316 131.988 26.1774 132.353 27.0888C132.744 28.0002 133.29 28.6772 133.994 29.1199C134.723 29.5626 135.569 29.7839 136.532 29.7839C137.314 29.7839 137.978 29.6537 138.525 29.3933C139.071 29.1069 139.514 28.7033 139.853 28.1825C140.217 27.6617 140.464 27.0367 140.595 26.3076L145.438 27.87C145.152 29.0418 144.618 30.0704 143.837 30.9557C143.055 31.8411 142.053 32.5311 140.829 33.0259C139.605 33.5207 138.186 33.768 136.572 33.768C134.566 33.768 132.796 33.3644 131.259 32.5572C129.723 31.7499 128.538 30.5912 127.705 29.0808C126.872 27.5705 126.455 25.7477 126.455 23.6124C126.455 21.4772 126.872 19.6544 127.705 18.144C128.538 16.6337 129.71 15.4749 131.22 14.6677C132.731 13.8605 134.462 13.4568 136.415 13.4568ZM167.459 13.8474L159.568 34.5883C158.943 36.359 158.24 37.7652 157.459 38.8068C156.704 39.8484 155.819 40.6035 154.803 41.0723C153.814 41.541 152.629 41.7753 151.249 41.7753C150.233 41.7753 149.296 41.6451 148.436 41.3847C147.603 41.1504 146.874 40.8379 146.249 40.4473L147.382 36.5804C147.876 36.971 148.397 37.2444 148.944 37.4006C149.491 37.5829 150.116 37.674 150.819 37.674C151.548 37.674 152.173 37.5178 152.694 37.2053C153.241 36.8928 153.696 36.2679 154.061 35.3304L154.725 33.6509L152.577 28.5731L146.6 13.8474H152.538L156.248 25.5654L157.264 29.4714L158.475 25.3311L162.029 13.8474H167.459Z" fill="#373737"/>
</g>
<defs>
<clipPath id="clip0_34717_5606">
<rect width="186" height="50" fill="white" transform="translate(0 0.5)"/>
</clipPath>
</defs>
</svg>
