<svg width="159" height="37" viewBox="0 0 159 37" fill="none" xmlns="http://www.w3.org/2000/svg">
<path d="M10.8077 2.59784C14.8439 2.59784 17.9687 3.71756 20.1821 5.957C22.3955 8.1704 23.5022 11.3473 23.5022 15.4876C23.5022 19.602 22.3955 22.7788 20.1821 25.0183C17.9687 27.2577 14.8439 28.3774 10.8077 28.3774H0.847441V2.59784H10.8077ZM10.5343 24.0808C12.9821 24.0808 14.8179 23.3517 16.0418 21.8935C17.2917 20.4092 17.9167 18.2739 17.9167 15.4876C17.9167 12.7014 17.2917 10.5791 16.0418 9.12086C14.8179 7.63658 12.9821 6.89444 10.5343 6.89444H6.23772V24.0808H10.5343ZM30.9557 6.03512C29.836 6.03512 29.0027 5.80076 28.4558 5.33204C27.909 4.83728 27.6356 4.12118 27.6356 3.18374C27.6356 2.22026 27.909 1.50416 28.4558 1.03544C29.0027 0.540679 29.836 0.293299 30.9557 0.293299C32.0754 0.293299 32.9087 0.540679 33.4555 1.03544C34.0024 1.50416 34.2758 2.22026 34.2758 3.18374C34.2758 4.12118 34.0024 4.83728 33.4555 5.33204C32.9087 5.80076 32.0754 6.03512 30.9557 6.03512ZM33.6118 8.84744V28.3774H28.2605V8.84744H33.6118ZM57.291 4.1993L57.9159 8.02718C57.8118 8.02718 57.6946 8.02718 57.5644 8.02718C57.4602 8.00114 57.3431 7.98812 57.2129 7.98812C56.0411 7.98812 55.1427 8.26154 54.5177 8.80838C53.9188 9.32918 53.6193 10.0583 53.6193 10.9957L51.432 10.0974C51.432 9.05576 51.6403 8.09228 52.0569 7.20692C52.4736 6.29552 53.0855 5.5664 53.8928 5.01956C54.726 4.47272 55.7156 4.1993 56.8613 4.1993C56.9134 4.1993 56.9785 4.1993 57.0566 4.1993C57.1347 4.1993 57.2129 4.1993 57.291 4.1993ZM50.8851 24.7058C52.9944 24.7058 54.6219 25.1615 55.7676 26.0729C56.9134 26.9843 57.4863 28.2603 57.4863 29.9008C57.4863 31.3851 57.0566 32.635 56.1973 33.6505C55.338 34.6921 54.1271 35.4733 52.5647 35.9941C51.0284 36.5149 49.2446 36.7753 47.2135 36.7753C43.8543 36.7753 41.3936 36.3066 39.8312 35.3692C38.2948 34.4317 37.5266 33.2079 37.5266 31.6975C37.5266 30.6299 37.9302 29.7315 38.7375 29.0024C39.5708 28.2733 40.9379 27.8697 42.8388 27.7915L42.6435 28.4165C41.2894 28.1821 40.2478 27.7395 39.5187 27.0885C38.8156 26.4114 38.4641 25.487 38.4641 24.3152C38.4641 23.1174 38.9198 22.1409 39.8312 21.3857C40.7686 20.6045 42.0315 20.1488 43.62 20.0186L45.9636 21.1123H45.4167C44.297 21.1904 43.5028 21.4248 43.0341 21.8154C42.5914 22.1799 42.3701 22.5966 42.3701 23.0653C42.3701 23.6121 42.5784 24.0288 42.995 24.3152C43.4377 24.5756 44.0627 24.7058 44.8699 24.7058H50.8851ZM47.2526 33.1037C48.6066 33.1037 49.7133 32.9865 50.5727 32.7522C51.458 32.5178 52.109 32.2183 52.5257 31.8538C52.9683 31.4892 53.1897 31.0856 53.1897 30.6429C53.1897 30.1482 52.9944 29.7445 52.6038 29.4321C52.2132 29.1456 51.5101 29.0024 50.4945 29.0024H43.8934C43.2684 29.0024 42.7476 29.1586 42.331 29.4711C41.9404 29.7836 41.7451 30.2133 41.7451 30.7601C41.7451 31.4892 42.2268 32.0621 43.1903 32.4787C44.1798 32.8954 45.5339 33.1037 47.2526 33.1037ZM47.2916 8.45684C49.1144 8.45684 50.6898 8.73026 52.0179 9.2771C53.372 9.7979 54.4005 10.5531 55.1036 11.5426C55.8327 12.5321 56.1973 13.7169 56.1973 15.097C56.1973 16.4511 55.8327 17.6229 55.1036 18.6124C54.4005 19.602 53.372 20.3701 52.0179 20.917C50.6898 21.4378 49.1144 21.6982 47.2916 21.6982C44.4012 21.6982 42.1878 21.1123 40.6514 19.9405C39.1151 18.7426 38.3469 17.1282 38.3469 15.097C38.3469 13.7169 38.7114 12.5321 39.4406 11.5426C40.1697 10.5531 41.1983 9.7979 42.5263 9.2771C43.8543 8.73026 45.4428 8.45684 47.2916 8.45684ZM47.2916 11.816C46.25 11.816 45.3907 12.1024 44.7137 12.6753C44.0366 13.2482 43.6981 14.0424 43.6981 15.058C43.6981 16.0735 44.0366 16.8808 44.7137 17.4797C45.3907 18.0526 46.25 18.339 47.2916 18.339C48.3332 18.339 49.1795 18.0526 49.8305 17.4797C50.5076 16.8808 50.8461 16.0735 50.8461 15.058C50.8461 14.0424 50.5076 13.2482 49.8305 12.6753C49.1795 12.1024 48.3332 11.816 47.2916 11.816ZM63.4167 6.03512C62.297 6.03512 61.4637 5.80076 60.9168 5.33204C60.37 4.83728 60.0966 4.12118 60.0966 3.18374C60.0966 2.22026 60.37 1.50416 60.9168 1.03544C61.4637 0.540679 62.297 0.293299 63.4167 0.293299C64.5364 0.293299 65.3697 0.540679 65.9165 1.03544C66.4634 1.50416 66.7368 2.22026 66.7368 3.18374C66.7368 4.12118 66.4634 4.83728 65.9165 5.33204C65.3697 5.80076 64.5364 6.03512 63.4167 6.03512ZM66.0728 8.84744V28.3774H60.7215V8.84744H66.0728Z" fill="#FF5300"/>
<path d="M80.8072 28.768C78.7501 28.768 76.9533 28.3644 75.417 27.5572C73.9066 26.7499 72.7348 25.5912 71.9016 24.0808C71.0683 22.5705 70.6516 20.7477 70.6516 18.6124C70.6516 16.4772 71.0683 14.6544 71.9016 13.144C72.7348 11.6337 73.8936 10.4749 75.3779 9.6677C76.8882 8.86046 78.6069 8.45684 80.5338 8.45684C82.5129 8.45684 84.1924 8.86046 85.5726 9.6677C86.9527 10.4489 88.0073 11.5296 88.7364 12.9097C89.4655 14.2638 89.8301 15.8131 89.8301 17.5578C89.8301 18.0786 89.8171 18.5734 89.791 19.0421C89.765 19.5108 89.7259 19.9275 89.6739 20.292H74.0889V16.5813H87.3303L84.7523 17.5188C84.7523 15.8782 84.3747 14.6153 83.6196 13.7299C82.8904 12.8446 81.8488 12.4019 80.4948 12.4019C79.5052 12.4019 78.6459 12.6363 77.9168 13.105C77.2137 13.5737 76.6799 14.2768 76.3153 15.2142C75.9508 16.1256 75.7685 17.2844 75.7685 18.6906C75.7685 20.0707 75.9638 21.2164 76.3544 22.1278C76.771 23.0132 77.3439 23.6772 78.073 24.1199C78.8282 24.5626 79.7266 24.7839 80.7682 24.7839C81.9139 24.7839 82.8384 24.5626 83.5414 24.1199C84.2445 23.6772 84.7914 23.0653 85.182 22.2841L89.4395 23.9246C89.0229 24.9402 88.3849 25.8125 87.5256 26.5416C86.6923 27.2707 85.6897 27.8306 84.5179 28.2212C83.3722 28.5858 82.1353 28.768 80.8072 28.768ZM94.365 28.3774V8.84744H99.1694L99.4819 14.7064L98.8179 14.0815C99.1303 12.8055 99.6251 11.7639 100.302 10.9567C100.979 10.1234 101.799 9.49844 102.763 9.0818C103.752 8.66516 104.833 8.45684 106.005 8.45684C107.359 8.45684 108.557 8.71724 109.598 9.23804C110.666 9.75884 111.499 10.5531 112.098 11.6207C112.723 12.6623 113.036 13.9773 113.036 15.5658V28.3774H107.684V17.0891C107.684 15.4225 107.359 14.2768 106.708 13.6518C106.057 13.0008 105.211 12.6753 104.169 12.6753C103.44 12.6753 102.724 12.8576 102.021 13.2222C101.344 13.5607 100.784 14.1205 100.341 14.9017C99.9246 15.6829 99.7162 16.7245 99.7162 18.0265V28.3774H94.365ZM127.415 8.45684C129.16 8.45684 130.631 8.71724 131.829 9.23804C133.053 9.7328 134.029 10.4229 134.759 11.3082C135.514 12.1675 136.048 13.131 136.36 14.1987L131.36 15.9954C131.1 14.8236 130.657 13.9383 130.032 13.3393C129.407 12.7404 128.561 12.441 127.493 12.441C126.504 12.441 125.658 12.6753 124.954 13.144C124.251 13.5867 123.718 14.2768 123.353 15.2142C122.988 16.1256 122.806 17.2714 122.806 18.6515C122.806 20.0316 122.988 21.1774 123.353 22.0888C123.744 23.0002 124.29 23.6772 124.994 24.1199C125.723 24.5626 126.569 24.7839 127.532 24.7839C128.314 24.7839 128.978 24.6537 129.525 24.3933C130.071 24.1069 130.514 23.7033 130.853 23.1825C131.217 22.6617 131.464 22.0367 131.595 21.3076L136.438 22.87C136.152 24.0418 135.618 25.0704 134.837 25.9557C134.055 26.8411 133.053 27.5311 131.829 28.0259C130.605 28.5207 129.186 28.768 127.572 28.768C125.566 28.768 123.796 28.3644 122.259 27.5572C120.723 26.7499 119.538 25.5912 118.705 24.0808C117.872 22.5705 117.455 20.7477 117.455 18.6124C117.455 16.4772 117.872 14.6544 118.705 13.144C119.538 11.6337 120.71 10.4749 122.22 9.6677C123.731 8.86046 125.462 8.45684 127.415 8.45684ZM158.459 8.84744L150.568 29.5883C149.943 31.359 149.24 32.7652 148.459 33.8068C147.704 34.8484 146.819 35.6035 145.803 36.0723C144.814 36.541 143.629 36.7753 142.249 36.7753C141.233 36.7753 140.296 36.6451 139.436 36.3847C138.603 36.1504 137.874 35.8379 137.249 35.4473L138.382 31.5804C138.876 31.971 139.397 32.2444 139.944 32.4006C140.491 32.5829 141.116 32.674 141.819 32.674C142.548 32.674 143.173 32.5178 143.694 32.2053C144.241 31.8928 144.696 31.2679 145.061 30.3304L145.725 28.6509L143.577 23.5731L137.6 8.84744H143.538L147.248 20.5654L148.264 24.4714L149.475 20.3311L153.029 8.84744H158.459Z" fill="#ffffff"/>
</svg>
